HIERARCHY
ROOT Hips
{
  OFFSET 0 0 0
  CHANNELS 6 Xposition Yposition Zposition Zrotation Yrotation Xrotation
  JOINT LeftThigh
  {
    OFFSET 8.409438 0 -5.917753
    CHANNELS 3 Zrotation Yrotation Xrotation
    JOINT LeftLeg
    {
      OFFSET 0 0 -42.358652
      CHANNELS 3 Zrotation Yrotation Xrotation
      JOINT LeftFoot
      {
        OFFSET 0 0 -39.357303
        CHANNELS 3 Zrotation Yrotation Xrotation
      }
    }
  }
  JOINT RightThigh
  {
    OFFSET -8.409438 0 -5.917753
    CHANNELS 3 Zrotation Yrotation Xrotation
    JOINT RightLeg
    {
      OFFSET 0 0 -42.358652
      CHANNELS 3 Zrotation Yrotation Xrotation
      JOINT RightFoot
      {
        OFFSET 0 0 -39.357303
        CHANNELS 3 Zrotation Yrotation Xrotation
      }
    }
  }
  JOINT SpineLow
  {
    OFFSET 0 0 4.719101
    CHANNELS 3 Zrotation Yrotation Xrotation
    JOINT SpineMid
    {
      OFFSET 0 0 12.899191
      CHANNELS 3 Zrotation Yrotation Xrotation
      JOINT Chest
      {
        OFFSET 0 0 12.899191
        CHANNELS 3 Zrotation Yrotation Xrotation
        JOINT LeftShoulder
        {
          OFFSET 7.550562 1.41573 9.438202
          CHANNELS 3 Zrotation Yrotation Xrotation
          JOINT LeftArm
          {
            OFFSET 9.155056 0 4.247191
            CHANNELS 3 Zrotation Yrotation Xrotation
            JOINT LeftForearm
            {
              OFFSET 0 0 25.771955
              CHANNELS 3 Zrotation Yrotation Xrotation
              JOINT LeftHand
              {
                OFFSET 0 0 25.197169
                CHANNELS 3 Zrotation Yrotation Xrotation
              }
            }
          }
        }
        JOINT RightShoulder
        {
          OFFSET -7.550562 1.41573 9.438202
          CHANNELS 3 Zrotation Yrotation Xrotation
          JOINT RightArm
          {
            OFFSET -9.155056 0 4.247191
            CHANNELS 3 Zrotation Yrotation Xrotation
            JOINT RightForearm
            {
              OFFSET 0 0 -25.771955
              CHANNELS 3 Zrotation Yrotation Xrotation
              JOINT RightHand
              {
                OFFSET 0 0 -25.197169
                CHANNELS 3 Zrotation Yrotation Xrotation
              }
            }
          }
        }
        JOINT Neck
        {
          OFFSET 0 0 15.101124
          CHANNELS 3 Zrotation Yrotation Xrotation
          JOINT Head
          {
            OFFSET 0 0 11.325843
            CHANNELS 3 Zrotation Yrotation Xrotation
            End Site
            {
              OFFSET 0 0 14.157303
            }
          }
        }
      }
    }
  }
}
MOTION
Frames: 12
Frame Time: 0.0
0.0  101.685394  0.0  -0.389453  9.27189  -100.462704  10.160413  -23.568723  4.425962  -8.872683  14.999694  22.007929  2.465183  4.024156  3.408201  -17.990839  12.056067  -1.482041  0.278295  3.974329  20.157316  5.650269  2.801803  -0.737032  0.966865  -0.870109  3.018392  2.530681  -2.49425  8.217736  2.530681  -2.49425  8.217735  0.342791  22.939721  10.230432  141.385474  20.495734  171.947196  -24.836856  24.433361  92.476773  27.390757  -38.568237  12.225486  18.305296  -7.94036  19.584796  69.061124  51.142254  35.209655  1.544151  3.001036  -15.700741  76.07026  -7.093067  23.408038  -0.924301  0.569259  2.380773  -0.69545  0.423353  1.786431  
0.0  101.685394  0.0  -0.414344  9.301638  -100.470756  10.191318  -23.608061  4.391322  -8.971783  15.041483  22.025431  2.46802  4.019917  3.402741  -17.846832  12.027331  -1.455379  0.22848  3.976663  20.175691  5.514052  2.788793  -0.760499  0.981368  -0.869163  3.021254  2.570275  -2.493572  8.225028  2.570275  -2.493572  8.225028  0.302189  22.813643  10.157835  141.457228  20.432203  171.964166  -24.813561  24.467036  92.485696  27.409747  -38.658293  12.146795  18.256495  -8.012876  19.546363  69.398457  51.063074  35.456221  1.791022  3.156762  -15.504097  76.060293  -7.278453  23.182983  -0.725628  0.532279  2.351891  -0.546275  0.396424  1.76454  
0.0  101.685394  0.0  -0.431479  9.303954  -100.49681  10.235823  -23.663543  4.354874  -9.03688  15.099501  22.069026  2.471525  4.026694  3.422251  -17.673151  11.984425  -1.373481  0.114495  4.01131  20.148054  5.488689  2.788323  -0.768193  0.978699  -0.876343  3.021875  2.562085  -2.512852  8.226597  2.562085  -2.512852  8.226597  0.392419  22.795634  10.15085  141.573008  20.395701  171.999978  -24.791235  24.538195  92.465954  27.482794  -38.666618  12.073426  18.300758  -8.01723  19.593204  69.492229  51.032787  35.543829  2.073032  3.348375  -15.434248  76.10936  -7.387359  22.913158  -0.516183  0.587518  2.297301  -0.389349  0.438706  1.723458  
0.0  101.685394  0.0  -0.46024  9.326059  -100.508243  10.262711  -23.732217  4.300992  -9.047663  15.153551  22.146641  2.444447  4.036518  3.432047  -17.547483  11.977314  -1.31863  0.031737  4.005401  20.139444  5.375965  2.75897  -0.793337  0.989428  -0.877827  3.02239  2.591171  -2.51825  8.227535  2.591171  -2.51825  8.227536  0.339663  22.698139  10.075981  141.696979  20.336026  172.017346  -24.719638  24.540889  92.498355  27.549057  -38.734754  11.968637  18.209793  -8.082481  19.557815  70.01849  50.84151  35.881368  1.994481  3.520756  -15.388302  76.186514  -7.405236  22.587074  -0.249917  0.594583  2.248238  -0.189627  0.445025  1.686407  
0.0  101.685394  0.0  -0.47356  9.326505  -100.537719  10.312227  -23.787475  4.266199  -9.101927  15.212902  22.196392  2.429158  4.043562  3.445447  -17.459953  11.973929  -1.238998  -0.020322  4.019961  20.108333  5.379882  2.746779  -0.794964  0.983459  -0.887296  3.021949  2.573734  -2.543325  8.226255  2.573734  -2.543326  8.226255  0.459027  22.696387  10.049894  141.791213  20.26871  172.048127  -24.695732  24.534665  92.479107  27.622481  -38.732763  11.835446  18.258507  -8.065226  19.625428  69.957983  50.801696  35.86331  2.10998  3.787092  -15.545119  76.334775  -7.342499  22.230154  0.061512  0.663174  2.179629  0.043769  0.497607  1.634637  
0.0  101.685394  0.0  -0.486204  9.387198  -100.543464  10.371224  -23.849171  4.229885  -9.201177  15.278345  22.222411  2.411964  4.046708  3.453957  -17.454742  11.997412  -1.21345  -0.148719  4.022477  20.090546  5.399051  2.72998  -0.793294  0.982367  -0.887899  3.01932  2.570782  -2.544738  8.219091  2.570782  -2.544738  8.219091  0.453927  22.639681  9.974618  141.960243  20.19298  172.05258  -24.637807  24.521348  92.502157  27.709541  -38.770651  11.683033  18.180478  -8.084848  19.621597  70.158344  50.609521  35.972449  1.976748  4.118182  -15.782211  76.534321  -7.252226  21.827443  0.418959  0.654174  2.113784  0.311957  0.492087  1.584873  
0.0  101.685394  0.0  -0.493516  9.416441  -100.574531  10.393118  -23.881847  4.189269  -9.275487  15.335141  22.27994  2.417318  4.050966  3.46431  -17.482265  12.001993  -1.166567  -0.113282  4.033449  20.08622  5.409733  2.726812  -0.777992  0.975636  -0.895708  3.021617  2.551361  -2.565294  8.225384  2.551361  -2.565294  8.225384  0.575381  22.615434  9.921907  142.004365  20.117103  172.080336  -24.617151  24.5404  92.481643  27.841236  -38.776505  11.451712  18.179105  -8.029106  19.662782  69.863481  50.512882  35.768439  2.059625  4.639745  -16.192296  76.81759  -7.152417  21.343634  0.799095  0.67118  2.012213  0.597112  0.506024  1.508268  
0.0  101.685394  0.0  -0.509692  9.485677  -100.576933  10.414878  -23.929715  4.131543  -9.344275  15.393018  22.338171  2.383919  4.048161  3.453205  -17.653821  12.016534  -1.202683  -0.02799  4.000598  20.116621  5.443923  2.753464  -0.758698  0.981869  -0.894439  3.024444  2.568417  -2.56271  8.232905  2.568417  -2.56271  8.232905  0.52365  22.492288  9.777606  142.22602  19.999885  172.099384  -24.587767  24.588413  92.481166  27.961045  -38.770016  11.241285  17.994705  -8.006065  19.575024  69.856124  50.227902  35.699801  1.940312  5.307421  -16.690176  77.186218  -7.032726  20.751749  1.240102  0.595192  1.915242  0.928214  0.450287  1.435218  
0.0  101.685394  0.0  -0.523037  9.54974  -100.587424  10.391065  -23.963484  4.061144  -9.412334  15.465699  22.39739  2.398078  4.051511  3.469332  -17.789315  12.015973  -1.185471  0.085912  4.004279  20.128059  5.436956  2.764386  -0.750297  0.973135  -0.902138  3.026825  2.543536  -2.582718  8.239518  2.543536  -2.582718  8.239518  0.650968  22.446783  9.697641  142.258124  19.927617  172.127702  -24.537887  24.667236  92.453044  28.139295  -38.808107  10.916764  17.9405  -7.901631  19.560055  69.356794  50.053981  35.340028  1.989579  6.148797  -17.421278  77.667258  -6.909055  20.092355  1.679524  0.570951  1.796326  1.257967  0.433158  1.345677  
0.0  101.685394  0.0  -0.53415  9.693422  -100.556511  10.284557  -23.969048  3.948134  -9.410678  15.539337  22.515829  2.386519  4.040826  3.455504  -18.08378  12.023657  -1.271183  0.308666  3.982303  20.210613  5.377236  2.77684  -0.763796  0.966562  -0.896945  3.026329  2.526248  -2.567719  8.238591  2.526248  -2.567719  8.23859  0.609322  22.310978  9.537993  142.398601  19.824858  172.131848  -24.617169  24.774839  92.407964  28.345808  -38.830548  10.61018  17.688412  -7.828758  19.41302  69.228061  49.712344  35.209984  1.773818  7.075498  -18.360722  78.195341  -6.759079  19.37356  2.174218  0.456534  1.688536  1.629408  0.348416  1.26479  
0.0  101.685394  0.0  -0.542732  9.808196  -100.543414  10.200298  -23.965335  3.868672  -9.472687  15.596196  22.564848  2.419765  4.043191  3.47101  -18.223212  12.003117  -1.280123  0.360987  4.024341  20.238277  5.386975  2.790551  -0.754127  0.950981  -0.902274  3.025791  2.483082  -2.580302  8.237574  2.483082  -2.580302  8.237573  0.718764  22.256552  9.451617  142.437777  19.738413  172.13134  -24.57048  24.882646  92.389645  28.583286  -38.838969  10.271356  17.600142  -7.683534  19.379051  68.869917  49.429236  34.969435  1.444331  8.093223  -19.536042  78.722117  -6.618199  18.593431  2.65879  0.423367  1.568008  1.993013  0.324357  1.174185  
0.0  101.685394  0.0  -0.554909  9.949951  -100.521862  10.089672  -23.96281  3.792545  -9.422611  15.646482  22.686142  2.374394  4.019768  3.438036  -18.367786  11.987024  -1.3245  0.540539  4.012399  20.329192  5.288493  2.809805  -0.763027  0.947205  -0.896213  3.022352  2.473658  -2.563175  8.228511  2.473658  -2.563175  8.228511  0.709663  22.127427  9.379445  142.552651  19.683153  172.103911  -24.606878  25.009669  92.364461  28.651982  -38.79031  10.099919  17.375607  -7.608477  19.288164  68.804111  49.063809  34.968579  0.772904  9.098994  -20.998321  79.277221  -6.477988  17.75294  3.133359  0.326942  1.455706  2.34925  0.252679  1.090134  
